<svg width="24" height="24" viewBox="0 0 24 24" fill="none" xmlns="http://www.w3.org/2000/svg">
    <path d="M23.25 2.25H19.5V0.75C19.5 0.33525 19.164 0 18.75 0H16.5C16.086 0 15.75 0.33525 15.75 0.75V2.25H8.25V0.75C8.25 0.33525 7.914 0 7.5 0H5.25C4.836 0 4.5 0.33525 4.5 0.75V2.25H0.75C0.336 2.25 0 2.58525 0 3V23.25C0 23.6647 0.336 24 0.75 24H23.25C23.664 24 24 23.6647 24 23.25V3C24 2.58525 23.664 2.25 23.25 2.25ZM15.75 3.75H19.5V5.25H15.75V3.75ZM4.5 3.75H8.25V5.25H4.5V3.75ZM22.5 22.5H1.5V9H22.5V22.5Z" fill="white"/>
</svg>