<svg width="24" height="19" viewBox="0 0 24 19" fill="none" xmlns="http://www.w3.org/2000/svg">
    <path d="M3.43957 8.48258C2.67279 7.68752 1.40667 7.66461 0.61161 8.43139C-0.183444 9.19818 -0.206361 10.4643 0.560426 11.2594L3.43957 8.48258ZM7.91111 16L6.47154 17.3884L7.90651 18.8763L9.34624 17.393L7.91111 16ZM22.9351 3.39299C23.7045 2.60039 23.6856 1.3342 22.893 0.564872C22.1004 -0.204453 20.8342 -0.185585 20.0649 0.607015L22.9351 3.39299ZM0.560426 11.2594L6.47154 17.3884L9.35069 14.6116L3.43957 8.48258L0.560426 11.2594ZM9.34624 17.393L22.9351 3.39299L20.0649 0.607015L6.47598 14.607L9.34624 17.393Z" fill="white"/>
</svg>
