<svg width="26" height="23" viewBox="0 0 26 23" fill="none" xmlns="http://www.w3.org/2000/svg">
    <path d="M6.14296 16.5384H6.64296V16.0384H6.14296V16.5384ZM6.14296 21.286H5.64296V22.428L6.4821 21.6534L6.14296 21.286ZM11.2862 16.5384V16.0384H11.0907L10.947 16.171L11.2862 16.5384ZM1.5 2.71423C1.5 1.88581 2.17157 1.21423 3 1.21423V0.214233C1.61929 0.214233 0.5 1.33352 0.5 2.71423H1.5ZM1.5 14.5384V2.71423H0.5V14.5384H1.5ZM3 16.0384C2.17157 16.0384 1.5 15.3668 1.5 14.5384H0.5C0.5 15.9191 1.61929 17.0384 3 17.0384V16.0384ZM6.14296 16.0384H3V17.0384H6.14296V16.0384ZM5.64296 16.5384V21.286H6.64296V16.5384H5.64296ZM6.4821 21.6534L11.6253 16.9058L10.947 16.171L5.80382 20.9186L6.4821 21.6534ZM23 16.0384H11.2862V17.0384H23V16.0384ZM24.5 14.5384C24.5 15.3668 23.8284 16.0384 23 16.0384V17.0384C24.3807 17.0384 25.5 15.9191 25.5 14.5384H24.5ZM24.5 2.71423V14.5384H25.5V2.71423H24.5ZM23 1.21423C23.8284 1.21423 24.5 1.88581 24.5 2.71423H25.5C25.5 1.33352 24.3807 0.214233 23 0.214233V1.21423ZM3 1.21423H23V0.214233H3V1.21423Z" fill="white"/>
</svg>
