<svg width="241" height="75" viewBox="0 0 241 75" fill="none" xmlns="http://www.w3.org/2000/svg">
<path d="M74.768 67.336C74.7253 67.3947 74.6827 67.44 74.64 67.472C74.5973 67.504 74.5387 67.52 74.464 67.52C74.384 67.52 74.296 67.488 74.2 67.424C74.104 67.3547 73.984 67.28 73.84 67.2C73.7013 67.12 73.528 67.048 73.32 66.984C73.1173 66.9147 72.8667 66.88 72.568 66.88C72.168 66.88 71.816 66.952 71.512 67.096C71.208 67.2347 70.952 67.4373 70.744 67.704C70.5413 67.9707 70.3867 68.2933 70.28 68.672C70.1787 69.0507 70.128 69.4747 70.128 69.944C70.128 70.4347 70.184 70.872 70.296 71.256C70.408 71.6347 70.5653 71.9547 70.768 72.216C70.976 72.472 71.224 72.6693 71.512 72.808C71.8053 72.9413 72.1333 73.008 72.496 73.008C72.8427 73.008 73.128 72.968 73.352 72.888C73.576 72.8027 73.76 72.7093 73.904 72.608C74.0533 72.5067 74.176 72.416 74.272 72.336C74.3733 72.2507 74.472 72.208 74.568 72.208C74.6853 72.208 74.776 72.2533 74.84 72.344L75.24 72.864C75.064 73.0827 74.864 73.2693 74.64 73.424C74.416 73.5787 74.1733 73.7093 73.912 73.816C73.656 73.9173 73.3867 73.992 73.104 74.04C72.8213 74.088 72.5333 74.112 72.24 74.112C71.7333 74.112 71.2613 74.0187 70.824 73.832C70.392 73.6453 70.016 73.376 69.696 73.024C69.376 72.6667 69.1253 72.2293 68.944 71.712C68.7627 71.1947 68.672 70.6053 68.672 69.944C68.672 69.3413 68.7547 68.784 68.92 68.272C69.0907 67.76 69.336 67.32 69.656 66.952C69.9813 66.5787 70.3787 66.288 70.848 66.08C71.3227 65.872 71.8667 65.768 72.48 65.768C73.0507 65.768 73.552 65.8613 73.984 66.048C74.4213 66.2293 74.808 66.488 75.144 66.824L74.768 67.336ZM80.044 65.768C80.636 65.768 81.1693 65.8667 81.644 66.064C82.1187 66.2613 82.524 66.5413 82.86 66.904C83.196 67.2667 83.452 67.7067 83.628 68.224C83.8093 68.736 83.9 69.3093 83.9 69.944C83.9 70.584 83.8093 71.16 83.628 71.672C83.452 72.184 83.196 72.6213 82.86 72.984C82.524 73.3467 82.1187 73.6267 81.644 73.824C81.1693 74.016 80.636 74.112 80.044 74.112C79.4467 74.112 78.908 74.016 78.428 73.824C77.9533 73.6267 77.548 73.3467 77.212 72.984C76.876 72.6213 76.6173 72.184 76.436 71.672C76.26 71.16 76.172 70.584 76.172 69.944C76.172 69.3093 76.26 68.736 76.436 68.224C76.6173 67.7067 76.876 67.2667 77.212 66.904C77.548 66.5413 77.9533 66.2613 78.428 66.064C78.908 65.8667 79.4467 65.768 80.044 65.768ZM80.044 73C80.844 73 81.4413 72.7333 81.836 72.2C82.2307 71.6613 82.428 70.912 82.428 69.952C82.428 68.9867 82.2307 68.2347 81.836 67.696C81.4413 67.1573 80.844 66.888 80.044 66.888C79.6387 66.888 79.284 66.9573 78.98 67.096C78.6813 67.2347 78.4307 67.4347 78.228 67.696C78.0307 67.9573 77.8813 68.28 77.78 68.664C77.684 69.0427 77.636 69.472 77.636 69.952C77.636 70.912 77.8333 71.6613 78.228 72.2C78.628 72.7333 79.2333 73 80.044 73ZM87.0501 67.072C87.2261 66.8747 87.4128 66.696 87.6101 66.536C87.8075 66.376 88.0155 66.24 88.2341 66.128C88.4581 66.0107 88.6928 65.9227 88.9381 65.864C89.1888 65.8 89.4581 65.768 89.7461 65.768C90.1888 65.768 90.5781 65.8427 90.9141 65.992C91.2555 66.136 91.5381 66.344 91.7621 66.616C91.9915 66.8827 92.1648 67.2053 92.2821 67.584C92.3995 67.9627 92.4581 68.3813 92.4581 68.84V74H91.0261V68.84C91.0261 68.2267 90.8848 67.752 90.6021 67.416C90.3248 67.0747 89.9008 66.904 89.3301 66.904C88.9088 66.904 88.5141 67.0053 88.1461 67.208C87.7835 67.4107 87.4475 67.6853 87.1381 68.032V74H85.7061V65.896H86.5621C86.7648 65.896 86.8901 65.9947 86.9381 66.192L87.0501 67.072ZM95.972 67.072C96.148 66.8747 96.3347 66.696 96.532 66.536C96.7293 66.376 96.9373 66.24 97.156 66.128C97.38 66.0107 97.6147 65.9227 97.86 65.864C98.1107 65.8 98.38 65.768 98.668 65.768C99.1107 65.768 99.5 65.8427 99.836 65.992C100.177 66.136 100.46 66.344 100.684 66.616C100.913 66.8827 101.087 67.2053 101.204 67.584C101.321 67.9627 101.38 68.3813 101.38 68.84V74H99.948V68.84C99.948 68.2267 99.8067 67.752 99.524 67.416C99.2467 67.0747 98.8227 66.904 98.252 66.904C97.8307 66.904 97.436 67.0053 97.068 67.208C96.7053 67.4107 96.3693 67.6853 96.06 68.032V74H94.628V65.896H95.484C95.6867 65.896 95.812 65.9947 95.86 66.192L95.972 67.072ZM108.974 69.064C108.974 68.7333 108.926 68.432 108.83 68.16C108.739 67.8827 108.603 67.6453 108.422 67.448C108.246 67.2453 108.03 67.0907 107.774 66.984C107.518 66.872 107.227 66.816 106.902 66.816C106.219 66.816 105.678 67.016 105.278 67.416C104.883 67.8107 104.638 68.36 104.542 69.064H108.974ZM110.126 72.864C109.95 73.0773 109.739 73.264 109.494 73.424C109.249 73.5787 108.985 73.7067 108.702 73.808C108.425 73.9093 108.137 73.984 107.838 74.032C107.539 74.0853 107.243 74.112 106.95 74.112C106.39 74.112 105.873 74.0187 105.398 73.832C104.929 73.64 104.521 73.3627 104.174 73C103.833 72.632 103.566 72.1787 103.374 71.64C103.182 71.1013 103.086 70.4827 103.086 69.784C103.086 69.2187 103.171 68.6907 103.342 68.2C103.518 67.7093 103.769 67.2853 104.094 66.928C104.419 66.5653 104.817 66.2827 105.286 66.08C105.755 65.872 106.283 65.768 106.87 65.768C107.355 65.768 107.803 65.8507 108.214 66.016C108.63 66.176 108.987 66.4107 109.286 66.72C109.59 67.024 109.827 67.4027 109.998 67.856C110.169 68.304 110.254 68.816 110.254 69.392C110.254 69.616 110.23 69.7653 110.182 69.84C110.134 69.9147 110.043 69.952 109.91 69.952H104.494C104.51 70.464 104.579 70.9093 104.702 71.288C104.83 71.6667 105.006 71.984 105.23 72.24C105.454 72.4907 105.721 72.68 106.03 72.808C106.339 72.9307 106.686 72.992 107.07 72.992C107.427 72.992 107.734 72.952 107.99 72.872C108.251 72.7867 108.475 72.696 108.662 72.6C108.849 72.504 109.003 72.416 109.126 72.336C109.254 72.2507 109.363 72.208 109.454 72.208C109.571 72.208 109.662 72.2533 109.726 72.344L110.126 72.864ZM117.643 67.336C117.6 67.3947 117.558 67.44 117.515 67.472C117.472 67.504 117.414 67.52 117.339 67.52C117.259 67.52 117.171 67.488 117.075 67.424C116.979 67.3547 116.859 67.28 116.715 67.2C116.576 67.12 116.403 67.048 116.195 66.984C115.992 66.9147 115.742 66.88 115.443 66.88C115.043 66.88 114.691 66.952 114.387 67.096C114.083 67.2347 113.827 67.4373 113.619 67.704C113.416 67.9707 113.262 68.2933 113.155 68.672C113.054 69.0507 113.003 69.4747 113.003 69.944C113.003 70.4347 113.059 70.872 113.171 71.256C113.283 71.6347 113.44 71.9547 113.643 72.216C113.851 72.472 114.099 72.6693 114.387 72.808C114.68 72.9413 115.008 73.008 115.371 73.008C115.718 73.008 116.003 72.968 116.227 72.888C116.451 72.8027 116.635 72.7093 116.779 72.608C116.928 72.5067 117.051 72.416 117.147 72.336C117.248 72.2507 117.347 72.208 117.443 72.208C117.56 72.208 117.651 72.2533 117.715 72.344L118.115 72.864C117.939 73.0827 117.739 73.2693 117.515 73.424C117.291 73.5787 117.048 73.7093 116.787 73.816C116.531 73.9173 116.262 73.992 115.979 74.04C115.696 74.088 115.408 74.112 115.115 74.112C114.608 74.112 114.136 74.0187 113.699 73.832C113.267 73.6453 112.891 73.376 112.571 73.024C112.251 72.6667 112 72.2293 111.819 71.712C111.638 71.1947 111.547 70.6053 111.547 69.944C111.547 69.3413 111.63 68.784 111.795 68.272C111.966 67.76 112.211 67.32 112.531 66.952C112.856 66.5787 113.254 66.288 113.723 66.08C114.198 65.872 114.742 65.768 115.355 65.768C115.926 65.768 116.427 65.8613 116.859 66.048C117.296 66.2293 117.683 66.488 118.019 66.824L117.643 67.336ZM122.132 74.128C121.492 74.128 120.998 73.9493 120.652 73.592C120.31 73.2347 120.14 72.72 120.14 72.048V67.088H119.164C119.078 67.088 119.006 67.064 118.948 67.016C118.889 66.9627 118.86 66.8827 118.86 66.776V66.208L120.188 66.04L120.516 63.536C120.532 63.456 120.566 63.392 120.62 63.344C120.678 63.2907 120.753 63.264 120.844 63.264H121.564V66.056H123.908V67.088H121.564V71.952C121.564 72.2933 121.646 72.5467 121.812 72.712C121.977 72.8773 122.19 72.96 122.452 72.96C122.601 72.96 122.729 72.9413 122.836 72.904C122.948 72.8613 123.044 72.816 123.124 72.768C123.204 72.72 123.27 72.6773 123.324 72.64C123.382 72.5973 123.433 72.576 123.476 72.576C123.55 72.576 123.617 72.6213 123.676 72.712L124.092 73.392C123.846 73.6213 123.55 73.8027 123.204 73.936C122.857 74.064 122.5 74.128 122.132 74.128ZM125.138 73.12C125.138 72.9813 125.162 72.8507 125.21 72.728C125.263 72.6053 125.333 72.4987 125.418 72.408C125.509 72.3173 125.615 72.2453 125.738 72.192C125.861 72.1387 125.991 72.112 126.13 72.112C126.269 72.112 126.399 72.1387 126.522 72.192C126.645 72.2453 126.751 72.3173 126.842 72.408C126.933 72.4987 127.005 72.6053 127.058 72.728C127.111 72.8507 127.138 72.9813 127.138 73.12C127.138 73.264 127.111 73.3973 127.058 73.52C127.005 73.6373 126.933 73.7413 126.842 73.832C126.751 73.9227 126.645 73.992 126.522 74.04C126.399 74.0933 126.269 74.12 126.13 74.12C125.991 74.12 125.861 74.0933 125.738 74.04C125.615 73.992 125.509 73.9227 125.418 73.832C125.333 73.7413 125.263 73.6373 125.21 73.52C125.162 73.3973 125.138 73.264 125.138 73.12ZM137.973 67.232C137.909 67.3493 137.81 67.408 137.677 67.408C137.597 67.408 137.506 67.3787 137.405 67.32C137.304 67.2613 137.178 67.1973 137.029 67.128C136.885 67.0533 136.712 66.9867 136.509 66.928C136.306 66.864 136.066 66.832 135.789 66.832C135.549 66.832 135.333 66.864 135.141 66.928C134.949 66.9867 134.784 67.0693 134.645 67.176C134.512 67.2827 134.408 67.408 134.333 67.552C134.264 67.6907 134.229 67.8427 134.229 68.008C134.229 68.216 134.288 68.3893 134.405 68.528C134.528 68.6667 134.688 68.7867 134.885 68.888C135.082 68.9893 135.306 69.08 135.557 69.16C135.808 69.2347 136.064 69.3173 136.325 69.408C136.592 69.4933 136.85 69.5893 137.101 69.696C137.352 69.8027 137.576 69.936 137.773 70.096C137.97 70.256 138.128 70.4533 138.245 70.688C138.368 70.9173 138.429 71.1947 138.429 71.52C138.429 71.8933 138.362 72.24 138.229 72.56C138.096 72.8747 137.898 73.1493 137.637 73.384C137.376 73.6133 137.056 73.7947 136.677 73.928C136.298 74.0613 135.861 74.128 135.365 74.128C134.8 74.128 134.288 74.0373 133.829 73.856C133.37 73.6693 132.981 73.432 132.661 73.144L132.997 72.6C133.04 72.5307 133.09 72.4773 133.149 72.44C133.208 72.4027 133.282 72.384 133.373 72.384C133.469 72.384 133.57 72.4213 133.677 72.496C133.784 72.5707 133.912 72.6533 134.061 72.744C134.216 72.8347 134.402 72.9173 134.621 72.992C134.84 73.0667 135.112 73.104 135.437 73.104C135.714 73.104 135.957 73.0693 136.165 73C136.373 72.9253 136.546 72.8267 136.685 72.704C136.824 72.5813 136.925 72.44 136.989 72.28C137.058 72.12 137.093 71.9493 137.093 71.768C137.093 71.544 137.032 71.36 136.909 71.216C136.792 71.0667 136.634 70.9413 136.437 70.84C136.24 70.7333 136.013 70.6427 135.757 70.568C135.506 70.488 135.248 70.4053 134.981 70.32C134.72 70.2347 134.461 70.1387 134.205 70.032C133.954 69.92 133.73 69.7813 133.533 69.616C133.336 69.4507 133.176 69.248 133.053 69.008C132.936 68.7627 132.877 68.4667 132.877 68.12C132.877 67.8107 132.941 67.5147 133.069 67.232C133.197 66.944 133.384 66.6933 133.629 66.48C133.874 66.2613 134.176 66.088 134.533 65.96C134.89 65.832 135.298 65.768 135.757 65.768C136.29 65.768 136.768 65.8533 137.189 66.024C137.616 66.1893 137.984 66.4187 138.293 66.712L137.973 67.232ZM141.607 66.976C141.954 66.608 142.338 66.3147 142.759 66.096C143.18 65.8773 143.666 65.768 144.215 65.768C144.658 65.768 145.047 65.8427 145.383 65.992C145.724 66.136 146.007 66.344 146.231 66.616C146.46 66.8827 146.634 67.2053 146.751 67.584C146.868 67.9627 146.927 68.3813 146.927 68.84V74H145.495V68.84C145.495 68.2267 145.354 67.752 145.071 67.416C144.794 67.0747 144.37 66.904 143.799 66.904C143.378 66.904 142.983 67.0053 142.615 67.208C142.252 67.4107 141.916 67.6853 141.607 68.032V74H140.175V62.216H141.607V66.976ZM154.737 67.336C154.694 67.3947 154.651 67.44 154.609 67.472C154.566 67.504 154.507 67.52 154.433 67.52C154.353 67.52 154.265 67.488 154.169 67.424C154.073 67.3547 153.953 67.28 153.809 67.2C153.67 67.12 153.497 67.048 153.289 66.984C153.086 66.9147 152.835 66.88 152.537 66.88C152.137 66.88 151.785 66.952 151.481 67.096C151.177 67.2347 150.921 67.4373 150.713 67.704C150.51 67.9707 150.355 68.2933 150.249 68.672C150.147 69.0507 150.097 69.4747 150.097 69.944C150.097 70.4347 150.153 70.872 150.265 71.256C150.377 71.6347 150.534 71.9547 150.737 72.216C150.945 72.472 151.193 72.6693 151.481 72.808C151.774 72.9413 152.102 73.008 152.465 73.008C152.811 73.008 153.097 72.968 153.321 72.888C153.545 72.8027 153.729 72.7093 153.873 72.608C154.022 72.5067 154.145 72.416 154.241 72.336C154.342 72.2507 154.441 72.208 154.537 72.208C154.654 72.208 154.745 72.2533 154.809 72.344L155.209 72.864C155.033 73.0827 154.833 73.2693 154.609 73.424C154.385 73.5787 154.142 73.7093 153.881 73.816C153.625 73.9173 153.355 73.992 153.073 74.04C152.79 74.088 152.502 74.112 152.209 74.112C151.702 74.112 151.23 74.0187 150.793 73.832C150.361 73.6453 149.985 73.376 149.665 73.024C149.345 72.6667 149.094 72.2293 148.913 71.712C148.731 71.1947 148.641 70.6053 148.641 69.944C148.641 69.3413 148.723 68.784 148.889 68.272C149.059 67.76 149.305 67.32 149.625 66.952C149.95 66.5787 150.347 66.288 150.817 66.08C151.291 65.872 151.835 65.768 152.449 65.768C153.019 65.768 153.521 65.8613 153.953 66.048C154.39 66.2293 154.777 66.488 155.113 66.824L154.737 67.336ZM162.021 69.064C162.021 68.7333 161.973 68.432 161.877 68.16C161.786 67.8827 161.65 67.6453 161.469 67.448C161.293 67.2453 161.077 67.0907 160.821 66.984C160.565 66.872 160.274 66.816 159.949 66.816C159.266 66.816 158.725 67.016 158.325 67.416C157.93 67.8107 157.685 68.36 157.589 69.064H162.021ZM163.173 72.864C162.997 73.0773 162.786 73.264 162.541 73.424C162.295 73.5787 162.031 73.7067 161.749 73.808C161.471 73.9093 161.183 73.984 160.885 74.032C160.586 74.0853 160.29 74.112 159.997 74.112C159.437 74.112 158.919 74.0187 158.445 73.832C157.975 73.64 157.567 73.3627 157.221 73C156.879 72.632 156.613 72.1787 156.421 71.64C156.229 71.1013 156.133 70.4827 156.133 69.784C156.133 69.2187 156.218 68.6907 156.389 68.2C156.565 67.7093 156.815 67.2853 157.141 66.928C157.466 66.5653 157.863 66.2827 158.333 66.08C158.802 65.872 159.33 65.768 159.917 65.768C160.402 65.768 160.85 65.8507 161.261 66.016C161.677 66.176 162.034 66.4107 162.333 66.72C162.637 67.024 162.874 67.4027 163.045 67.856C163.215 68.304 163.301 68.816 163.301 69.392C163.301 69.616 163.277 69.7653 163.229 69.84C163.181 69.9147 163.09 69.952 162.957 69.952H157.541C157.557 70.464 157.626 70.9093 157.749 71.288C157.877 71.6667 158.053 71.984 158.277 72.24C158.501 72.4907 158.767 72.68 159.077 72.808C159.386 72.9307 159.733 72.992 160.117 72.992C160.474 72.992 160.781 72.952 161.037 72.872C161.298 72.7867 161.522 72.696 161.709 72.6C161.895 72.504 162.05 72.416 162.173 72.336C162.301 72.2507 162.41 72.208 162.501 72.208C162.618 72.208 162.709 72.2533 162.773 72.344L163.173 72.864ZM170.33 67.824C170.063 67.4667 169.775 67.2187 169.466 67.08C169.157 66.936 168.81 66.864 168.426 66.864C167.674 66.864 167.095 67.1333 166.69 67.672C166.285 68.2107 166.082 68.9787 166.082 69.976C166.082 70.504 166.127 70.9573 166.218 71.336C166.309 71.7093 166.442 72.0187 166.618 72.264C166.794 72.504 167.01 72.68 167.266 72.792C167.522 72.904 167.813 72.96 168.138 72.96C168.607 72.96 169.015 72.8533 169.362 72.64C169.714 72.4267 170.037 72.1253 170.33 71.736V67.824ZM171.754 62.216V74H170.906C170.703 74 170.575 73.9013 170.522 73.704L170.394 72.72C170.047 73.136 169.653 73.472 169.21 73.728C168.767 73.984 168.255 74.112 167.674 74.112C167.21 74.112 166.789 74.024 166.41 73.848C166.031 73.6667 165.709 73.4027 165.442 73.056C165.175 72.7093 164.97 72.2773 164.826 71.76C164.682 71.2427 164.61 70.648 164.61 69.976C164.61 69.3787 164.69 68.824 164.85 68.312C165.01 67.7947 165.239 67.3467 165.538 66.968C165.837 66.5893 166.202 66.2933 166.634 66.08C167.071 65.8613 167.562 65.752 168.106 65.752C168.602 65.752 169.026 65.8373 169.378 66.008C169.735 66.1733 170.053 66.4053 170.33 66.704V62.216H171.754ZM180.667 65.896V74H179.819C179.616 74 179.488 73.9013 179.435 73.704L179.323 72.832C178.971 73.2213 178.576 73.536 178.139 73.776C177.702 74.0107 177.2 74.128 176.635 74.128C176.192 74.128 175.8 74.056 175.459 73.912C175.123 73.7627 174.84 73.5547 174.611 73.288C174.382 73.0213 174.208 72.6987 174.091 72.32C173.979 71.9413 173.923 71.5227 173.923 71.064V65.896H175.347V71.064C175.347 71.6773 175.486 72.152 175.763 72.488C176.046 72.824 176.475 72.992 177.051 72.992C177.472 72.992 177.864 72.8933 178.227 72.696C178.595 72.4933 178.934 72.216 179.243 71.864V65.896H180.667ZM184.397 62.216V74H182.973V62.216H184.397ZM192.13 69.064C192.13 68.7333 192.082 68.432 191.986 68.16C191.895 67.8827 191.759 67.6453 191.578 67.448C191.402 67.2453 191.186 67.0907 190.93 66.984C190.674 66.872 190.383 66.816 190.058 66.816C189.375 66.816 188.834 67.016 188.434 67.416C188.039 67.8107 187.794 68.36 187.698 69.064H192.13ZM193.282 72.864C193.106 73.0773 192.895 73.264 192.65 73.424C192.405 73.5787 192.141 73.7067 191.858 73.808C191.581 73.9093 191.293 73.984 190.994 74.032C190.695 74.0853 190.399 74.112 190.106 74.112C189.546 74.112 189.029 74.0187 188.554 73.832C188.085 73.64 187.677 73.3627 187.33 73C186.989 72.632 186.722 72.1787 186.53 71.64C186.338 71.1013 186.242 70.4827 186.242 69.784C186.242 69.2187 186.327 68.6907 186.498 68.2C186.674 67.7093 186.925 67.2853 187.25 66.928C187.575 66.5653 187.973 66.2827 188.442 66.08C188.911 65.872 189.439 65.768 190.026 65.768C190.511 65.768 190.959 65.8507 191.37 66.016C191.786 66.176 192.143 66.4107 192.442 66.72C192.746 67.024 192.983 67.4027 193.154 67.856C193.325 68.304 193.41 68.816 193.41 69.392C193.41 69.616 193.386 69.7653 193.338 69.84C193.29 69.9147 193.199 69.952 193.066 69.952H187.65C187.666 70.464 187.735 70.9093 187.858 71.288C187.986 71.6667 188.162 71.984 188.386 72.24C188.61 72.4907 188.877 72.68 189.186 72.808C189.495 72.9307 189.842 72.992 190.226 72.992C190.583 72.992 190.89 72.952 191.146 72.872C191.407 72.7867 191.631 72.696 191.818 72.6C192.005 72.504 192.159 72.416 192.282 72.336C192.41 72.2507 192.519 72.208 192.61 72.208C192.727 72.208 192.818 72.2533 192.882 72.344L193.282 72.864ZM194.919 73.12C194.919 72.9813 194.943 72.8507 194.991 72.728C195.045 72.6053 195.114 72.4987 195.199 72.408C195.29 72.3173 195.397 72.2453 195.519 72.192C195.642 72.1387 195.773 72.112 195.911 72.112C196.05 72.112 196.181 72.1387 196.303 72.192C196.426 72.2453 196.533 72.3173 196.623 72.408C196.714 72.4987 196.786 72.6053 196.839 72.728C196.893 72.8507 196.919 72.9813 196.919 73.12C196.919 73.264 196.893 73.3973 196.839 73.52C196.786 73.6373 196.714 73.7413 196.623 73.832C196.533 73.9227 196.426 73.992 196.303 74.04C196.181 74.0933 196.05 74.12 195.911 74.12C195.773 74.12 195.642 74.0933 195.519 74.04C195.397 73.992 195.29 73.9227 195.199 73.832C195.114 73.7413 195.045 73.6373 194.991 73.52C194.943 73.3973 194.919 73.264 194.919 73.12ZM203.034 74V65.896H203.89C204.093 65.896 204.218 65.9947 204.266 66.192L204.37 67.024C204.669 66.656 205.005 66.3547 205.378 66.12C205.752 65.8853 206.184 65.768 206.674 65.768C207.218 65.768 207.658 65.92 207.994 66.224C208.336 66.528 208.581 66.9387 208.73 67.456C208.848 67.1627 208.997 66.9093 209.178 66.696C209.365 66.4827 209.573 66.3067 209.802 66.168C210.032 66.0293 210.274 65.928 210.53 65.864C210.792 65.8 211.056 65.768 211.322 65.768C211.749 65.768 212.128 65.8373 212.458 65.976C212.794 66.1093 213.077 66.3067 213.306 66.568C213.541 66.8293 213.72 67.152 213.842 67.536C213.965 67.9147 214.026 68.3493 214.026 68.84V74H212.594V68.84C212.594 68.2053 212.456 67.7253 212.178 67.4C211.901 67.0693 211.501 66.904 210.978 66.904C210.744 66.904 210.52 66.9467 210.306 67.032C210.098 67.112 209.914 67.232 209.754 67.392C209.594 67.552 209.466 67.7547 209.37 68C209.28 68.24 209.234 68.52 209.234 68.84V74H207.802V68.84C207.802 68.1893 207.672 67.704 207.41 67.384C207.149 67.064 206.768 66.904 206.266 66.904C205.914 66.904 205.589 67 205.29 67.192C204.992 67.3787 204.717 67.6347 204.466 67.96V74H203.034ZM221.615 69.064C221.615 68.7333 221.567 68.432 221.471 68.16C221.38 67.8827 221.244 67.6453 221.063 67.448C220.887 67.2453 220.671 67.0907 220.415 66.984C220.159 66.872 219.868 66.816 219.543 66.816C218.86 66.816 218.319 67.016 217.919 67.416C217.524 67.8107 217.279 68.36 217.183 69.064H221.615ZM222.767 72.864C222.591 73.0773 222.38 73.264 222.135 73.424C221.889 73.5787 221.625 73.7067 221.343 73.808C221.065 73.9093 220.777 73.984 220.479 74.032C220.18 74.0853 219.884 74.112 219.591 74.112C219.031 74.112 218.513 74.0187 218.039 73.832C217.569 73.64 217.161 73.3627 216.815 73C216.473 72.632 216.207 72.1787 216.015 71.64C215.823 71.1013 215.727 70.4827 215.727 69.784C215.727 69.2187 215.812 68.6907 215.983 68.2C216.159 67.7093 216.409 67.2853 216.735 66.928C217.06 66.5653 217.457 66.2827 217.927 66.08C218.396 65.872 218.924 65.768 219.511 65.768C219.996 65.768 220.444 65.8507 220.855 66.016C221.271 66.176 221.628 66.4107 221.927 66.72C222.231 67.024 222.468 67.4027 222.639 67.856C222.809 68.304 222.895 68.816 222.895 69.392C222.895 69.616 222.871 69.7653 222.823 69.84C222.775 69.9147 222.684 69.952 222.551 69.952H217.135C217.151 70.464 217.22 70.9093 217.343 71.288C217.471 71.6667 217.647 71.984 217.871 72.24C218.095 72.4907 218.361 72.68 218.671 72.808C218.98 72.9307 219.327 72.992 219.711 72.992C220.068 72.992 220.375 72.952 220.631 72.872C220.892 72.7867 221.116 72.696 221.303 72.6C221.489 72.504 221.644 72.416 221.767 72.336C221.895 72.2507 222.004 72.208 222.095 72.208C222.212 72.208 222.303 72.2533 222.367 72.344L222.767 72.864ZM230.068 69.064C230.068 68.7333 230.02 68.432 229.924 68.16C229.833 67.8827 229.697 67.6453 229.516 67.448C229.34 67.2453 229.124 67.0907 228.868 66.984C228.612 66.872 228.321 66.816 227.996 66.816C227.313 66.816 226.772 67.016 226.372 67.416C225.977 67.8107 225.732 68.36 225.636 69.064H230.068ZM231.22 72.864C231.044 73.0773 230.833 73.264 230.588 73.424C230.342 73.5787 230.078 73.7067 229.796 73.808C229.518 73.9093 229.23 73.984 228.932 74.032C228.633 74.0853 228.337 74.112 228.044 74.112C227.484 74.112 226.966 74.0187 226.492 73.832C226.022 73.64 225.614 73.3627 225.268 73C224.926 72.632 224.66 72.1787 224.468 71.64C224.276 71.1013 224.18 70.4827 224.18 69.784C224.18 69.2187 224.265 68.6907 224.436 68.2C224.612 67.7093 224.862 67.2853 225.188 66.928C225.513 66.5653 225.91 66.2827 226.38 66.08C226.849 65.872 227.377 65.768 227.964 65.768C228.449 65.768 228.897 65.8507 229.308 66.016C229.724 66.176 230.081 66.4107 230.38 66.72C230.684 67.024 230.921 67.4027 231.092 67.856C231.262 68.304 231.348 68.816 231.348 69.392C231.348 69.616 231.324 69.7653 231.276 69.84C231.228 69.9147 231.137 69.952 231.004 69.952H225.588C225.604 70.464 225.673 70.9093 225.796 71.288C225.924 71.6667 226.1 71.984 226.324 72.24C226.548 72.4907 226.814 72.68 227.124 72.808C227.433 72.9307 227.78 72.992 228.164 72.992C228.521 72.992 228.828 72.952 229.084 72.872C229.345 72.7867 229.569 72.696 229.756 72.6C229.942 72.504 230.097 72.416 230.22 72.336C230.348 72.2507 230.457 72.208 230.548 72.208C230.665 72.208 230.756 72.2533 230.82 72.344L231.22 72.864ZM235.522 74.128C234.882 74.128 234.389 73.9493 234.042 73.592C233.701 73.2347 233.53 72.72 233.53 72.048V67.088H232.554C232.469 67.088 232.397 67.064 232.338 67.016C232.28 66.9627 232.25 66.8827 232.25 66.776V66.208L233.578 66.04L233.906 63.536C233.922 63.456 233.957 63.392 234.01 63.344C234.069 63.2907 234.144 63.264 234.234 63.264H234.954V66.056H237.298V67.088H234.954V71.952C234.954 72.2933 235.037 72.5467 235.202 72.712C235.368 72.8773 235.581 72.96 235.842 72.96C235.992 72.96 236.12 72.9413 236.226 72.904C236.338 72.8613 236.434 72.816 236.514 72.768C236.594 72.72 236.661 72.6773 236.714 72.64C236.773 72.5973 236.824 72.576 236.866 72.576C236.941 72.576 237.008 72.6213 237.066 72.712L237.482 73.392C237.237 73.6213 236.941 73.8027 236.594 73.936C236.248 74.064 235.89 74.128 235.522 74.128ZM238.529 73.12C238.529 72.9813 238.553 72.8507 238.601 72.728C238.654 72.6053 238.723 72.4987 238.809 72.408C238.899 72.3173 239.006 72.2453 239.129 72.192C239.251 72.1387 239.382 72.112 239.521 72.112C239.659 72.112 239.79 72.1387 239.913 72.192C240.035 72.2453 240.142 72.3173 240.233 72.408C240.323 72.4987 240.395 72.6053 240.449 72.728C240.502 72.8507 240.529 72.9813 240.529 73.12C240.529 73.264 240.502 73.3973 240.449 73.52C240.395 73.6373 240.323 73.7413 240.233 73.832C240.142 73.9227 240.035 73.992 239.913 74.04C239.79 74.0933 239.659 74.12 239.521 74.12C239.382 74.12 239.251 74.0933 239.129 74.04C239.006 73.992 238.899 73.9227 238.809 73.832C238.723 73.7413 238.654 73.6373 238.601 73.52C238.553 73.3973 238.529 73.264 238.529 73.12Z" fill="#C1C1C1"/>
<path d="M85.689 21.523C85.537 21.789 85.3723 21.9853 85.195 22.112C85.0303 22.226 84.8213 22.283 84.568 22.283C84.302 22.283 84.0107 22.188 83.694 21.998C83.39 21.7953 83.0227 21.5737 82.592 21.333C82.1613 21.0923 81.6547 20.877 81.072 20.687C80.502 20.4843 79.8243 20.383 79.039 20.383C78.3297 20.383 77.709 20.4717 77.177 20.649C76.645 20.8137 76.1953 21.048 75.828 21.352C75.4733 21.656 75.2073 22.0233 75.03 22.454C74.8527 22.872 74.764 23.3343 74.764 23.841C74.764 24.487 74.9413 25.0253 75.296 25.456C75.6633 25.8867 76.1447 26.254 76.74 26.558C77.3353 26.862 78.013 27.1343 78.773 27.375C79.533 27.6157 80.312 27.8753 81.11 28.154C81.908 28.42 82.687 28.7367 83.447 29.104C84.207 29.4587 84.8847 29.9147 85.48 30.472C86.0753 31.0167 86.5503 31.688 86.905 32.486C87.2723 33.284 87.456 34.253 87.456 35.393C87.456 36.6343 87.2407 37.7997 86.81 38.889C86.392 39.9657 85.7713 40.9093 84.948 41.72C84.1373 42.518 83.143 43.1513 81.965 43.62C80.787 44.076 79.438 44.304 77.918 44.304C77.044 44.304 76.1827 44.2153 75.334 44.038C74.4853 43.8733 73.6683 43.6327 72.883 43.316C72.1103 42.9993 71.382 42.6193 70.698 42.176C70.014 41.7327 69.406 41.2387 68.874 40.694L70.375 38.243C70.5017 38.0657 70.6663 37.92 70.869 37.806C71.0717 37.6793 71.287 37.616 71.515 37.616C71.8317 37.616 72.1737 37.749 72.541 38.015C72.9083 38.2683 73.3453 38.5533 73.852 38.87C74.3587 39.1867 74.9477 39.478 75.619 39.744C76.303 39.9973 77.12 40.124 78.07 40.124C79.5267 40.124 80.654 39.782 81.452 39.098C82.25 38.4013 82.649 37.407 82.649 36.115C82.649 35.393 82.4653 34.804 82.098 34.348C81.7433 33.892 81.2683 33.512 80.673 33.208C80.0777 32.8913 79.4 32.6253 78.64 32.41C77.88 32.1947 77.1073 31.9603 76.322 31.707C75.5367 31.4537 74.764 31.1497 74.004 30.795C73.244 30.4403 72.5663 29.978 71.971 29.408C71.3757 28.838 70.8943 28.1287 70.527 27.28C70.1723 26.4187 69.995 25.361 69.995 24.107C69.995 23.1063 70.1913 22.131 70.584 21.181C70.9893 20.231 71.572 19.3887 72.332 18.654C73.092 17.9193 74.0293 17.3303 75.144 16.887C76.2587 16.4437 77.538 16.222 78.982 16.222C80.6033 16.222 82.098 16.4753 83.466 16.982C84.834 17.4887 85.9993 18.198 86.962 19.11L85.689 21.523ZM105.064 28.629C104.925 28.8063 104.786 28.9457 104.646 29.047C104.52 29.1483 104.33 29.199 104.076 29.199C103.836 29.199 103.601 29.1293 103.373 28.99C103.145 28.838 102.873 28.6733 102.556 28.496C102.24 28.306 101.86 28.1413 101.416 28.002C100.986 27.85 100.447 27.774 99.8013 27.774C98.9779 27.774 98.2559 27.926 97.6353 28.23C97.0146 28.5213 96.4953 28.9457 96.0773 29.503C95.6719 30.0603 95.3679 30.738 95.1653 31.536C94.9626 32.3213 94.8613 33.2143 94.8613 34.215C94.8613 35.2537 94.9689 36.1783 95.1843 36.989C95.4123 37.7997 95.7353 38.4837 96.1533 39.041C96.5713 39.5857 97.0779 40.0037 97.6733 40.295C98.2686 40.5737 98.9399 40.713 99.6873 40.713C100.435 40.713 101.036 40.6243 101.492 40.447C101.961 40.257 102.354 40.0543 102.67 39.839C102.987 39.611 103.259 39.4083 103.487 39.231C103.728 39.041 103.994 38.946 104.285 38.946C104.665 38.946 104.95 39.0917 105.14 39.383L106.489 41.093C105.97 41.701 105.406 42.214 104.798 42.632C104.19 43.0373 103.557 43.3667 102.898 43.62C102.252 43.8607 101.581 44.0317 100.884 44.133C100.2 44.2343 99.5163 44.285 98.8323 44.285C97.6289 44.285 96.4953 44.0633 95.4313 43.62C94.3673 43.164 93.4363 42.5053 92.6383 41.644C91.8403 40.7827 91.2069 39.7313 90.7383 38.49C90.2823 37.236 90.0543 35.811 90.0543 34.215C90.0543 32.7837 90.2569 31.46 90.6623 30.244C91.0803 29.0153 91.6883 27.9577 92.4863 27.071C93.2843 26.1717 94.2723 25.4687 95.4503 24.962C96.6283 24.4553 97.9836 24.202 99.5162 24.202C100.973 24.202 102.246 24.4363 103.335 24.905C104.437 25.3737 105.425 26.045 106.299 26.919L105.064 28.629ZM114.124 26.596C114.884 25.8867 115.72 25.3103 116.632 24.867C117.544 24.4237 118.615 24.202 119.843 24.202C120.907 24.202 121.851 24.3857 122.674 24.753C123.498 25.1077 124.182 25.6143 124.726 26.273C125.284 26.919 125.702 27.698 125.98 28.61C126.272 29.5093 126.417 30.5037 126.417 31.593V44H121.724V31.593C121.724 30.4023 121.452 29.484 120.907 28.838C120.363 28.1793 119.533 27.85 118.418 27.85C117.608 27.85 116.848 28.0337 116.138 28.401C115.429 28.7683 114.758 29.2687 114.124 29.902V44H109.431V15.766H114.124V26.596Z" fill="#F4F4F4"/>
<path d="M139.583 40.637C140.355 40.637 141.033 40.5293 141.616 40.314C142.198 40.086 142.686 39.7757 143.079 39.383C143.484 38.9903 143.788 38.5217 143.991 37.977C144.193 37.4323 144.295 36.8433 144.295 36.21C144.295 34.7027 143.877 33.5627 143.041 32.79C142.205 32.0173 141.052 31.631 139.583 31.631C138.113 31.631 136.961 32.0173 136.125 32.79C135.289 33.5627 134.871 34.7027 134.871 36.21C134.871 36.8433 134.972 37.4323 135.175 37.977C135.377 38.5217 135.675 38.9903 136.068 39.383C136.473 39.7757 136.967 40.086 137.55 40.314C138.132 40.5293 138.81 40.637 139.583 40.637ZM139.583 19.756C138.886 19.756 138.284 19.8637 137.778 20.079C137.271 20.2943 136.847 20.5857 136.505 20.953C136.175 21.3077 135.928 21.7193 135.764 22.188C135.612 22.6567 135.536 23.1507 135.536 23.67C135.536 24.2147 135.599 24.7467 135.726 25.266C135.865 25.7727 136.093 26.2287 136.41 26.634C136.726 27.0267 137.144 27.3433 137.664 27.584C138.183 27.8247 138.823 27.945 139.583 27.945C140.343 27.945 140.982 27.8247 141.502 27.584C142.021 27.3433 142.439 27.0267 142.756 26.634C143.072 26.2287 143.294 25.7727 143.421 25.266C143.56 24.7467 143.63 24.2147 143.63 23.67C143.63 23.1507 143.547 22.6567 143.383 22.188C143.218 21.7193 142.971 21.3077 142.642 20.953C142.312 20.5857 141.894 20.2943 141.388 20.079C140.881 19.8637 140.279 19.756 139.583 19.756ZM144.219 29.674C145.891 30.2187 147.126 31.0547 147.924 32.182C148.722 33.2967 149.121 34.6647 149.121 36.286C149.121 37.502 148.886 38.604 148.418 39.592C147.962 40.58 147.316 41.4223 146.48 42.119C145.644 42.8157 144.637 43.354 143.459 43.734C142.293 44.114 141.001 44.304 139.583 44.304C138.164 44.304 136.866 44.114 135.688 43.734C134.522 43.354 133.522 42.8157 132.686 42.119C131.85 41.4223 131.197 40.58 130.729 39.592C130.273 38.604 130.045 37.502 130.045 36.286C130.045 34.6647 130.444 33.2967 131.242 32.182C132.04 31.0547 133.275 30.2187 134.947 29.674C133.617 29.1167 132.616 28.325 131.945 27.299C131.286 26.273 130.957 25.038 130.957 23.594C130.957 22.5553 131.166 21.5863 131.584 20.687C132.014 19.7877 132.61 19.0087 133.37 18.35C134.13 17.6787 135.035 17.1593 136.087 16.792C137.151 16.412 138.316 16.222 139.583 16.222C140.849 16.222 142.008 16.412 143.06 16.792C144.124 17.1593 145.036 17.6787 145.796 18.35C146.556 19.0087 147.145 19.7877 147.562 20.687C147.993 21.5863 148.209 22.5553 148.209 23.594C148.209 25.038 147.873 26.273 147.202 27.299C146.543 28.325 145.549 29.1167 144.219 29.674Z" fill="#FF8C19"/>
<path d="M165.159 29.484C164.627 28.838 164.045 28.382 163.411 28.116C162.791 27.85 162.119 27.717 161.397 27.717C160.688 27.717 160.048 27.85 159.478 28.116C158.908 28.382 158.421 28.7873 158.015 29.332C157.61 29.864 157.3 30.548 157.084 31.384C156.869 32.2073 156.761 33.1827 156.761 34.31C156.761 35.45 156.85 36.419 157.027 37.217C157.217 38.0023 157.483 38.6483 157.825 39.155C158.167 39.649 158.585 40.01 159.079 40.238C159.573 40.4533 160.124 40.561 160.732 40.561C161.708 40.561 162.537 40.3583 163.221 39.953C163.905 39.5477 164.551 38.9713 165.159 38.224V29.484ZM169.852 15.766V44H166.983C166.363 44 165.97 43.715 165.805 43.145L165.406 41.264C164.621 42.1633 163.715 42.8917 162.689 43.449C161.676 44.0063 160.492 44.285 159.136 44.285C158.072 44.285 157.097 44.0633 156.21 43.62C155.324 43.1767 154.557 42.537 153.911 41.701C153.278 40.8523 152.784 39.8073 152.429 38.566C152.087 37.3247 151.916 35.906 151.916 34.31C151.916 32.866 152.113 31.5233 152.505 30.282C152.898 29.0407 153.462 27.964 154.196 27.052C154.931 26.14 155.811 25.4307 156.837 24.924C157.863 24.4047 159.016 24.145 160.295 24.145C161.385 24.145 162.316 24.316 163.088 24.658C163.861 25 164.551 25.4623 165.159 26.045V15.766H169.852ZM191.28 24.506V44H188.411C187.79 44 187.398 43.715 187.233 43.145L186.91 41.587C186.112 42.3977 185.232 43.0563 184.269 43.563C183.306 44.057 182.173 44.304 180.868 44.304C179.804 44.304 178.86 44.1267 178.037 43.772C177.226 43.4047 176.542 42.8917 175.985 42.233C175.428 41.5743 175.003 40.7953 174.712 39.896C174.433 38.984 174.294 37.9833 174.294 36.894V24.506H178.987V36.894C178.987 38.0847 179.259 39.0093 179.804 39.668C180.361 40.314 181.191 40.637 182.293 40.637C183.104 40.637 183.864 40.4597 184.573 40.105C185.282 39.7377 185.954 39.2373 186.587 38.604V24.506H191.28ZM200.683 15.766V44H195.99V15.766H200.683ZM217.918 32.011C217.918 31.403 217.829 30.833 217.652 30.301C217.487 29.7563 217.234 29.2813 216.892 28.876C216.55 28.4707 216.113 28.154 215.581 27.926C215.062 27.6853 214.454 27.565 213.757 27.565C212.402 27.565 211.331 27.9513 210.546 28.724C209.773 29.4967 209.279 30.5923 209.064 32.011H217.918ZM208.969 34.842C209.045 35.8427 209.222 36.7103 209.501 37.445C209.78 38.167 210.147 38.7687 210.603 39.25C211.059 39.7187 211.597 40.0733 212.218 40.314C212.851 40.542 213.548 40.656 214.308 40.656C215.068 40.656 215.72 40.5673 216.265 40.39C216.822 40.2127 217.304 40.0163 217.709 39.801C218.127 39.5857 218.488 39.3893 218.792 39.212C219.109 39.0347 219.413 38.946 219.704 38.946C220.097 38.946 220.388 39.0917 220.578 39.383L221.927 41.093C221.408 41.701 220.825 42.214 220.179 42.632C219.533 43.0373 218.855 43.3667 218.146 43.62C217.449 43.8607 216.734 44.0317 215.999 44.133C215.277 44.2343 214.574 44.285 213.89 44.285C212.535 44.285 211.274 44.0633 210.109 43.62C208.944 43.164 207.93 42.499 207.069 41.625C206.208 40.7383 205.53 39.649 205.036 38.357C204.542 37.0523 204.295 35.545 204.295 33.835C204.295 32.505 204.51 31.2573 204.941 30.092C205.372 28.914 205.986 27.8943 206.784 27.033C207.595 26.159 208.576 25.4687 209.729 24.962C210.894 24.4553 212.205 24.202 213.662 24.202C214.891 24.202 216.024 24.3983 217.063 24.791C218.102 25.1837 218.995 25.76 219.742 26.52C220.489 27.2673 221.072 28.192 221.49 29.294C221.921 30.3833 222.136 31.631 222.136 33.037C222.136 33.7463 222.06 34.2277 221.908 34.481C221.756 34.7217 221.465 34.842 221.034 34.842H208.969ZM230.085 27.888C230.693 26.7227 231.415 25.8107 232.251 25.152C233.087 24.4807 234.075 24.145 235.215 24.145C236.114 24.145 236.836 24.3413 237.381 24.734L237.077 28.249C237.014 28.477 236.919 28.6417 236.792 28.743C236.678 28.8317 236.52 28.876 236.317 28.876C236.127 28.876 235.842 28.8443 235.462 28.781C235.095 28.7177 234.734 28.686 234.379 28.686C233.86 28.686 233.397 28.762 232.992 28.914C232.587 29.066 232.219 29.2877 231.89 29.579C231.573 29.8577 231.288 30.1997 231.035 30.605C230.794 31.0103 230.566 31.4727 230.351 31.992V44H225.658V24.506H228.413C228.894 24.506 229.23 24.5947 229.42 24.772C229.61 24.9367 229.737 25.2407 229.8 25.684L230.085 27.888Z" fill="white"/>
<path d="M0 55.5833C0 56.9173 1.08267 58 2.41667 58H55.5833C56.9173 58 58 56.9173 58 55.5833V21.75H0V55.5833Z" fill="#00A1F1"/>
<path d="M58 7.25C58 5.916 56.9173 4.83333 55.5833 4.83333H48.3333V2.41667C48.3333 1.08267 47.2507 0 45.9167 0H36.25C34.916 0 33.8333 1.08267 33.8333 2.41667V4.83333H24.1667V2.41667C24.1667 1.08267 23.084 0 21.75 0H12.0833C10.7493 0 9.66667 1.08267 9.66667 2.41667V4.83333H2.41667C1.08267 4.83333 0 5.916 0 7.25V16.9167H58V7.25ZM19.3333 12.0833H14.5V4.83333H19.3333V12.0833ZM43.5 12.0833H38.6667V4.83333H43.5V12.0833Z" fill="#FF8C19"/>
</svg>
